<svg width="138" height="45" viewBox="0 0 138 45" fill="none" xmlns="http://www.w3.org/2000/svg">
<rect x="0.5" y="0.5" width="137" height="44" rx="7.5" stroke="black"/>
<path d="M47.4906 29H45.921L50.4608 16.6364H52.0062L56.546 29H54.9764L51.2818 18.5923H51.1852L47.4906 29ZM48.0701 24.1705H54.3968V25.4986H48.0701V24.1705ZM58.2786 32.4773V19.7273H59.655V21.2003H59.824C59.9287 21.0393 60.0736 20.834 60.2587 20.5845C60.4479 20.331 60.7175 20.1056 61.0676 19.9084C61.4218 19.7071 61.9007 19.6065 62.5044 19.6065C63.2852 19.6065 63.9734 19.8017 64.5691 20.1921C65.1647 20.5825 65.6296 21.1359 65.9636 21.8523C66.2976 22.5687 66.4647 23.4138 66.4647 24.3878C66.4647 25.3698 66.2976 26.221 65.9636 26.9414C65.6296 27.6578 65.1667 28.2132 64.5751 28.6076C63.9835 28.998 63.3013 29.1932 62.5286 29.1932C61.9329 29.1932 61.456 29.0946 61.0978 28.8974C60.7396 28.6961 60.464 28.4687 60.2708 28.2152C60.0776 27.9576 59.9287 27.7443 59.824 27.5753H59.7033V32.4773H58.2786ZM59.6792 24.3636C59.6792 25.0639 59.7818 25.6817 59.987 26.217C60.1923 26.7482 60.4921 27.1648 60.8865 27.4666C61.281 27.7644 61.7639 27.9134 62.3354 27.9134C62.931 27.9134 63.4281 27.7564 63.8265 27.4425C64.229 27.1245 64.5308 26.6979 64.7321 26.1626C64.9373 25.6233 65.04 25.0237 65.04 24.3636C65.04 23.7116 64.9393 23.1241 64.7381 22.6009C64.5409 22.0736 64.2411 21.6571 63.8386 21.3512C63.4402 21.0413 62.9391 20.8864 62.3354 20.8864C61.7559 20.8864 61.2689 21.0333 60.8745 21.3271C60.4801 21.6168 60.1822 22.0233 59.981 22.5465C59.7798 23.0657 59.6792 23.6714 59.6792 24.3636ZM68.638 32.4773V19.7273H70.0144V21.2003H70.1834C70.2881 21.0393 70.4329 20.834 70.6181 20.5845C70.8072 20.331 71.0769 20.1056 71.427 19.9084C71.7812 19.7071 72.2601 19.6065 72.8638 19.6065C73.6446 19.6065 74.3328 19.8017 74.9284 20.1921C75.5241 20.5825 75.9889 21.1359 76.323 21.8523C76.657 22.5687 76.824 23.4138 76.824 24.3878C76.824 25.3698 76.657 26.221 76.323 26.9414C75.9889 27.6578 75.5261 28.2132 74.9345 28.6076C74.3429 28.998 73.6607 29.1932 72.888 29.1932C72.2923 29.1932 71.8154 29.0946 71.4572 28.8974C71.099 28.6961 70.8233 28.4687 70.6301 28.2152C70.437 27.9576 70.2881 27.7443 70.1834 27.5753H70.0627V32.4773H68.638ZM70.0385 24.3636C70.0385 25.0639 70.1412 25.6817 70.3464 26.217C70.5517 26.7482 70.8515 27.1648 71.2459 27.4666C71.6403 27.7644 72.1233 27.9134 72.6948 27.9134C73.2904 27.9134 73.7875 27.7564 74.1859 27.4425C74.5884 27.1245 74.8902 26.6979 75.0914 26.1626C75.2967 25.6233 75.3993 25.0237 75.3993 24.3636C75.3993 23.7116 75.2987 23.1241 75.0975 22.6009C74.9003 22.0736 74.6004 21.6571 74.198 21.3512C73.7995 21.0413 73.2985 20.8864 72.6948 20.8864C72.1152 20.8864 71.6283 21.0333 71.2338 21.3271C70.8394 21.6168 70.5416 22.0233 70.3404 22.5465C70.1391 23.0657 70.0385 23.6714 70.0385 24.3636ZM90.3468 21.804L89.0669 22.1662C88.9864 21.9529 88.8677 21.7456 88.7108 21.5444C88.5578 21.3391 88.3485 21.1701 88.0829 21.0373C87.8173 20.9045 87.4772 20.8381 87.0627 20.8381C86.4952 20.8381 86.0223 20.9689 85.644 21.2305C85.2697 21.488 85.0826 21.8161 85.0826 22.2145C85.0826 22.5687 85.2114 22.8484 85.4689 23.0536C85.7265 23.2589 86.129 23.4299 86.6763 23.5668L88.0527 23.9048C88.8818 24.1061 89.4996 24.4139 89.9061 24.8285C90.3126 25.239 90.5158 25.7682 90.5158 26.4162C90.5158 26.9474 90.3629 27.4223 90.057 27.8409C89.7551 28.2595 89.3326 28.5895 88.7892 28.831C88.2459 29.0724 87.6141 29.1932 86.8936 29.1932C85.9479 29.1932 85.1651 28.9879 84.5453 28.5774C83.9255 28.1669 83.5331 27.5672 83.3681 26.7784L84.7203 26.4403C84.8491 26.9394 85.0926 27.3137 85.4508 27.5632C85.813 27.8127 86.2859 27.9375 86.8695 27.9375C87.5336 27.9375 88.0608 27.7966 88.4512 27.5149C88.8456 27.2292 89.0428 26.8871 89.0428 26.4886C89.0428 26.1667 88.9301 25.897 88.7047 25.6797C88.4793 25.4583 88.1332 25.2933 87.6664 25.1847L86.1209 24.8224C85.2717 24.6212 84.6479 24.3093 84.2495 23.8867C83.8551 23.4601 83.6578 22.9268 83.6578 22.2869C83.6578 21.7637 83.8047 21.3009 84.0985 20.8984C84.3964 20.496 84.8008 20.18 85.312 19.9506C85.8271 19.7212 86.4107 19.6065 87.0627 19.6065C87.9803 19.6065 88.7007 19.8078 89.2239 20.2102C89.7511 20.6127 90.1254 21.1439 90.3468 21.804ZM96.6931 19.7273V20.9347H91.8877V19.7273H96.6931ZM93.2883 17.5057H94.713V26.3438C94.713 26.7462 94.7713 27.0481 94.8881 27.2493C95.0088 27.4465 95.1617 27.5793 95.3469 27.6477C95.536 27.7121 95.7352 27.7443 95.9445 27.7443C96.1015 27.7443 96.2303 27.7363 96.3309 27.7202C96.4315 27.7 96.512 27.6839 96.5724 27.6719L96.8621 28.9517C96.7655 28.9879 96.6307 29.0241 96.4577 29.0604C96.2846 29.1006 96.0653 29.1207 95.7996 29.1207C95.3972 29.1207 95.0028 29.0342 94.6164 28.8612C94.234 28.6881 93.9161 28.4245 93.6626 28.0703C93.413 27.7161 93.2883 27.2694 93.2883 26.7301V17.5057ZM102.504 29.1932C101.667 29.1932 100.932 28.994 100.3 28.5955C99.6723 28.1971 99.1813 27.6397 98.8271 26.9233C98.477 26.2069 98.3019 25.3698 98.3019 24.4119C98.3019 23.446 98.477 22.6029 98.8271 21.8825C99.1813 21.162 99.6723 20.6026 100.3 20.2042C100.932 19.8058 101.667 19.6065 102.504 19.6065C103.341 19.6065 104.073 19.8058 104.701 20.2042C105.333 20.6026 105.824 21.162 106.174 21.8825C106.528 22.6029 106.705 23.446 106.705 24.4119C106.705 25.3698 106.528 26.2069 106.174 26.9233C105.824 27.6397 105.333 28.1971 104.701 28.5955C104.073 28.994 103.341 29.1932 102.504 29.1932ZM102.504 27.9134C103.14 27.9134 103.663 27.7504 104.073 27.4244C104.484 27.0984 104.788 26.6697 104.985 26.1385C105.182 25.6072 105.281 25.0317 105.281 24.4119C105.281 23.7921 105.182 23.2146 104.985 22.6793C104.788 22.1441 104.484 21.7114 104.073 21.3814C103.663 21.0514 103.14 20.8864 102.504 20.8864C101.868 20.8864 101.345 21.0514 100.934 21.3814C100.524 21.7114 100.22 22.1441 100.022 22.6793C99.8253 23.2146 99.7267 23.7921 99.7267 24.4119C99.7267 25.0317 99.8253 25.6072 100.022 26.1385C100.22 26.6697 100.524 27.0984 100.934 27.4244C101.345 27.7504 101.868 27.9134 102.504 27.9134ZM108.88 29V19.7273H110.257V21.1278H110.353C110.522 20.669 110.828 20.2968 111.271 20.011C111.713 19.7253 112.213 19.5824 112.768 19.5824C112.873 19.5824 113.003 19.5844 113.16 19.5884C113.317 19.5924 113.436 19.5985 113.517 19.6065V21.0554C113.468 21.0433 113.358 21.0252 113.184 21.0011C113.015 20.9729 112.836 20.9588 112.647 20.9588C112.196 20.9588 111.794 21.0534 111.44 21.2425C111.09 21.4277 110.812 21.6853 110.607 22.0153C110.405 22.3413 110.305 22.7135 110.305 23.1321V29H108.88ZM118.811 29.1932C117.917 29.1932 117.147 28.996 116.499 28.6016C115.855 28.2031 115.358 27.6477 115.008 26.9354C114.662 26.219 114.488 25.3859 114.488 24.4361C114.488 23.4863 114.662 22.6491 115.008 21.9247C115.358 21.1963 115.845 20.6288 116.469 20.2223C117.096 19.8118 117.829 19.6065 118.666 19.6065C119.149 19.6065 119.626 19.687 120.097 19.848C120.568 20.009 120.996 20.2706 121.383 20.6328C121.769 20.991 122.077 21.4659 122.306 22.0575C122.536 22.6491 122.65 23.3776 122.65 24.2429V24.8466H115.503V23.6151H121.202C121.202 23.0919 121.097 22.625 120.888 22.2145C120.682 21.804 120.389 21.48 120.006 21.2425C119.628 21.0051 119.181 20.8864 118.666 20.8864C118.099 20.8864 117.608 21.0272 117.193 21.3089C116.782 21.5866 116.467 21.9489 116.245 22.3956C116.024 22.8423 115.913 23.3213 115.913 23.8324V24.6534C115.913 25.3537 116.034 25.9473 116.275 26.4343C116.521 26.9173 116.861 27.2855 117.296 27.5391C117.73 27.7886 118.235 27.9134 118.811 27.9134C119.185 27.9134 119.523 27.861 119.825 27.7564C120.131 27.6477 120.395 27.4867 120.616 27.2734C120.837 27.0561 121.008 26.7865 121.129 26.4645L122.506 26.8509C122.361 27.3177 122.117 27.7282 121.775 28.0824C121.433 28.4325 121.01 28.7062 120.507 28.9034C120.004 29.0966 119.439 29.1932 118.811 29.1932Z" fill="black"/>
<path d="M31.3932 18.5006C31.2578 18.5996 28.868 19.8691 28.868 22.692C28.868 25.9571 31.909 27.1122 32 27.1408C31.986 27.2112 31.5169 28.7228 30.3966 30.2629C29.3977 31.6183 28.3545 32.9714 26.7675 32.9714C25.1804 32.9714 24.772 32.1023 22.9399 32.1023C21.1545 32.1023 20.5197 33 19.068 33C17.6164 33 16.6035 31.7459 15.4389 30.2057C14.0899 28.3971 13 25.5875 13 22.9208C13 18.6436 15.95 16.3751 18.8533 16.3751C20.396 16.3751 21.682 17.33 22.6505 17.33C23.5724 17.33 25.0101 16.3179 26.7651 16.3179C27.4303 16.3179 29.8202 16.3751 31.3932 18.5006ZM25.9319 14.5072C26.6578 13.6953 27.1712 12.5688 27.1712 11.4422C27.1712 11.286 27.1572 11.1276 27.1269 11C25.9459 11.0418 24.5409 11.7415 23.6938 12.6678C23.0286 13.3806 22.4078 14.5072 22.4078 15.6491C22.4078 15.8207 22.4382 15.9923 22.4522 16.0473C22.5268 16.0605 22.6482 16.0759 22.7696 16.0759C23.8292 16.0759 25.1618 15.407 25.9319 14.5072Z" fill="black"/>
</svg>
